<?xml version="1.0" standalone="no"?>
<!DOCTYPE svg PUBLIC "-//W3C//DTD SVG 20010904//EN"
 "http://www.w3.org/TR/2001/REC-SVG-20010904/DTD/svg10.dtd">
<svg version="1.0" xmlns="http://www.w3.org/2000/svg"
 width="1024.000000pt" height="1024.000000pt" viewBox="0 0 1024.000000 1024.000000"
 preserveAspectRatio="xMidYMid meet">
<metadata>
Created by potrace 1.14, written by Peter Selinger 2001-2017
</metadata>
<g transform="translate(0.000000,1024.000000) scale(0.100000,-0.100000)"
fill="#000000" stroke="none">
<path d="M4858 10235 c-2 -2 -51 -6 -109 -9 -58 -4 -116 -8 -128 -11 -12 -2
-47 -6 -79 -9 -31 -3 -66 -8 -78 -10 -11 -2 -47 -7 -79 -10 -32 -4 -77 -11
-99 -16 -23 -4 -59 -11 -81 -15 -82 -12 -104 -17 -300 -65 -237 -58 -531 -153
-710 -229 -109 -47 -331 -146 -335 -150 -3 -4 -45 -26 -95 -50 -49 -25 -127
-66 -172 -93 -45 -26 -84 -48 -88 -48 -3 0 -11 -5 -18 -10 -7 -6 -32 -23 -57
-39 -114 -72 -195 -125 -200 -130 -3 -3 -41 -31 -85 -61 -74 -50 -99 -69 -129
-95 -6 -5 -29 -23 -51 -40 -22 -16 -51 -39 -64 -52 -14 -12 -28 -20 -33 -17
-4 3 -8 -2 -8 -10 0 -9 -3 -16 -7 -16 -5 0 -21 -12 -38 -26 -67 -57 -172 -152
-223 -201 -30 -29 -58 -53 -63 -53 -5 0 -8 -3 -7 -7 1 -5 -34 -44 -78 -89 -43
-44 -106 -111 -139 -149 -33 -38 -67 -76 -75 -85 -15 -15 -131 -161 -167 -208
-10 -13 -22 -29 -28 -35 -14 -17 -104 -143 -140 -197 -16 -25 -33 -46 -37 -48
-5 -2 -8 -10 -8 -18 0 -8 -4 -14 -9 -14 -5 0 -11 -8 -14 -17 -4 -10 -34 -61
-67 -113 -33 -52 -63 -102 -67 -110 -4 -8 -22 -42 -41 -75 -38 -66 -192 -371
-192 -379 0 -3 -13 -33 -29 -66 -16 -33 -28 -60 -26 -60 2 0 -8 -26 -22 -57
-31 -72 -113 -296 -113 -312 0 -6 -5 -19 -10 -29 -11 -18 -78 -248 -86 -292
-3 -14 -8 -36 -13 -50 -16 -43 -73 -321 -86 -415 -3 -22 -10 -65 -15 -95 -5
-30 -12 -80 -15 -110 -4 -30 -8 -66 -10 -80 -2 -14 -7 -68 -11 -120 -3 -52 -7
-106 -9 -120 -3 -40 3 -46 49 -45 l43 1 0 -256 0 -257 -46 1 -46 1 3 -80 c1
-44 4 -102 7 -130 9 -90 15 -139 19 -175 7 -49 17 -121 20 -150 2 -14 7 -43
11 -65 4 -22 9 -49 11 -60 2 -11 8 -42 14 -70 5 -27 11 -61 14 -75 11 -66 109
-428 141 -525 50 -148 120 -336 150 -402 14 -29 25 -56 25 -60 0 -10 196 -402
241 -483 23 -41 46 -77 51 -78 4 -2 8 -8 8 -14 0 -6 13 -30 30 -55 16 -24 30
-46 30 -48 0 -2 33 -52 73 -111 39 -59 77 -115 83 -126 6 -10 23 -32 38 -48
14 -16 26 -34 26 -40 0 -5 5 -10 10 -10 6 0 10 -5 10 -11 0 -6 6 -16 13 -24 6
-7 23 -27 37 -45 14 -17 32 -40 40 -50 8 -10 29 -35 45 -56 17 -21 39 -48 50
-60 11 -12 36 -41 55 -64 19 -24 63 -72 98 -108 34 -36 62 -69 62 -74 0 -5 5
-6 10 -3 6 3 10 2 10 -3 0 -9 159 -172 168 -172 2 0 18 -15 36 -32 32 -33 102
-95 172 -153 20 -16 48 -41 64 -55 15 -14 38 -32 50 -40 12 -8 28 -21 36 -28
7 -6 18 -12 24 -12 6 0 8 -4 5 -10 -3 -5 0 -10 7 -10 7 0 31 -16 53 -35 22
-19 43 -35 47 -35 3 0 13 -6 20 -13 7 -6 49 -37 93 -67 44 -30 82 -58 83 -62
2 -4 8 -8 14 -8 5 0 28 -13 51 -28 23 -16 49 -32 57 -35 8 -4 27 -15 42 -25
23 -15 104 -62 198 -115 50 -28 348 -177 355 -177 3 0 27 -10 53 -21 26 -12
67 -30 92 -41 25 -11 53 -24 62 -29 10 -5 26 -9 36 -9 10 0 22 -4 27 -9 11
-11 336 -121 428 -146 31 -8 81 -22 111 -30 30 -8 65 -17 78 -20 12 -2 43 -9
68 -15 25 -6 56 -12 70 -15 14 -3 46 -10 72 -16 25 -6 57 -12 70 -13 21 -3 40
-6 123 -21 28 -6 44 -8 140 -20 22 -3 51 -7 65 -9 25 -5 75 -9 230 -23 178
-15 700 -8 860 12 19 2 60 6 90 10 86 9 128 14 230 31 52 9 108 18 124 20 16
2 45 8 65 14 20 5 52 12 71 15 19 3 43 8 52 11 9 3 25 7 37 9 181 35 757 224
826 271 11 8 26 14 35 14 20 0 400 188 486 240 36 22 68 40 70 40 13 0 355
223 380 247 7 8 14 11 14 7 0 -4 12 3 28 17 15 14 54 45 87 69 33 24 65 49 71
55 6 5 23 19 38 30 16 11 41 31 56 45 16 14 42 36 57 49 15 13 44 38 64 56 19
18 45 38 57 44 13 7 20 16 17 22 -4 5 -1 9 4 9 19 0 336 323 431 439 38 47 73
88 94 111 7 8 57 74 110 145 54 72 104 138 112 148 8 9 14 19 14 22 0 2 24 39
53 82 69 101 187 298 187 311 0 6 3 12 8 14 4 1 15 19 26 38 35 65 166 329
166 334 0 3 13 33 29 68 65 139 194 491 217 593 4 17 9 35 13 40 3 6 7 15 8
20 11 42 74 294 77 310 12 49 15 65 20 96 3 19 8 45 11 59 10 46 16 85 20 120
3 19 7 46 9 59 17 79 46 355 50 476 1 29 0 30 -45 29 l-46 0 0 256 0 256 46 0
46 -1 -1 60 c-1 94 -21 296 -40 405 -2 14 -6 45 -9 70 -11 82 -77 405 -96 466
-5 17 -11 40 -13 50 -7 34 -67 237 -98 329 -30 89 -150 400 -167 433 -5 9 -47
96 -94 192 -47 97 -106 211 -131 254 -25 43 -46 80 -46 82 0 3 -8 17 -18 32
-39 56 -96 147 -97 152 0 4 -34 55 -105 156 -65 94 -101 142 -119 161 -12 12
-21 25 -21 29 0 3 -34 47 -76 98 -67 81 -103 123 -207 239 -51 57 -168 176
-191 194 -12 10 -29 29 -39 43 -9 13 -17 21 -17 18 0 -4 -29 21 -65 55 -62 59
-84 79 -186 164 -86 72 -124 102 -209 165 -47 35 -86 66 -88 71 -2 4 -8 7 -13
7 -6 0 -33 17 -62 38 -47 34 -180 121 -224 147 -90 52 -120 70 -135 83 -10 8
-18 11 -18 7 0 -4 -8 -2 -17 6 -10 8 -29 20 -42 28 -40 22 -333 167 -373 185
-21 9 -53 22 -70 30 -81 35 -286 115 -313 122 -17 4 -34 10 -40 14 -10 7 -92
33 -225 72 -36 10 -79 23 -97 29 -18 5 -40 12 -50 14 -16 3 -121 28 -178 42
-11 2 -30 6 -42 8 -11 2 -29 6 -40 9 -22 7 -229 43 -298 52 -27 3 -59 8 -70
10 -11 2 -40 6 -65 9 -25 2 -72 7 -105 11 -33 3 -80 8 -105 10 -56 6 -647 14
-652 9z"/>
</g>
</svg>
